<mxfile host="Electron" agent="Mozilla/5.0 (Windows NT 10.0; Win64; x64) AppleWebKit/537.36 (KHTML, like Gecko) draw.io/28.1.2 Chrome/138.0.7204.243 Electron/37.4.0 Safari/537.36" version="28.1.2">
  <diagram name="Page-1" id="YaQ07jet8RtqBMUM_zYv">
    <mxGraphModel dx="1209" dy="719" grid="1" gridSize="10" guides="1" tooltips="1" connect="1" arrows="1" fold="1" page="1" pageScale="1" pageWidth="850" pageHeight="1100" math="0" shadow="0">
      <root>
        <mxCell id="0" />
        <mxCell id="1" parent="0" />
        <mxCell id="6pG7vvidPj4tpIA_mSHs-1" value="" style="rounded=1;whiteSpace=wrap;html=1;strokeColor=#FF9933;" vertex="1" parent="1">
          <mxGeometry x="229" y="210" width="175" height="310" as="geometry" />
        </mxCell>
        <mxCell id="6pG7vvidPj4tpIA_mSHs-2" value="Bronze Layer" style="rounded=1;whiteSpace=wrap;html=1;fillColor=#f0a30a;fontColor=#000000;strokeColor=#BD7000;fontSize=18;fontStyle=1" vertex="1" parent="1">
          <mxGeometry x="229" y="130" width="170" height="60" as="geometry" />
        </mxCell>
        <mxCell id="6pG7vvidPj4tpIA_mSHs-4" value="" style="image;aspect=fixed;html=1;points=[];align=center;fontSize=12;image=img/lib/azure2/general/Folder_Blank.svg;" vertex="1" parent="1">
          <mxGeometry x="90" y="260" width="69" height="56.00000000000001" as="geometry" />
        </mxCell>
        <mxCell id="6pG7vvidPj4tpIA_mSHs-5" value="" style="image;aspect=fixed;html=1;points=[];align=center;fontSize=12;image=img/lib/azure2/general/Folder_Blank.svg;" vertex="1" parent="1">
          <mxGeometry x="90" y="396" width="69" height="56.00000000000001" as="geometry" />
        </mxCell>
        <mxCell id="6pG7vvidPj4tpIA_mSHs-6" value="CRM" style="text;html=1;align=center;verticalAlign=middle;whiteSpace=wrap;rounded=0;fontSize=16;fontStyle=0" vertex="1" parent="1">
          <mxGeometry x="94.5" y="316" width="60" height="30" as="geometry" />
        </mxCell>
        <mxCell id="6pG7vvidPj4tpIA_mSHs-7" value="ERP" style="text;html=1;align=center;verticalAlign=middle;whiteSpace=wrap;rounded=0;fontSize=16;fontStyle=0" vertex="1" parent="1">
          <mxGeometry x="94.5" y="451" width="60" height="30" as="geometry" />
        </mxCell>
        <mxCell id="6pG7vvidPj4tpIA_mSHs-8" value="&lt;font style=&quot;font-size: 14px;&quot;&gt;crm_sales_details&lt;/font&gt;" style="rounded=1;whiteSpace=wrap;html=1;fillColor=#f0a30a;fontColor=#000000;strokeColor=#BD7000;" vertex="1" parent="1">
          <mxGeometry x="254" y="230" width="132" height="30" as="geometry" />
        </mxCell>
        <mxCell id="6pG7vvidPj4tpIA_mSHs-14" value="&lt;font style=&quot;font-size: 14px;&quot;&gt;crm_cust_info&lt;/font&gt;" style="rounded=1;whiteSpace=wrap;html=1;fillColor=#f0a30a;fontColor=#000000;strokeColor=#BD7000;" vertex="1" parent="1">
          <mxGeometry x="254" y="273" width="132" height="30" as="geometry" />
        </mxCell>
        <mxCell id="6pG7vvidPj4tpIA_mSHs-15" value="&lt;font style=&quot;font-size: 14px;&quot;&gt;crm_prd_info&lt;/font&gt;" style="rounded=1;whiteSpace=wrap;html=1;fillColor=#f0a30a;fontColor=#000000;strokeColor=#BD7000;" vertex="1" parent="1">
          <mxGeometry x="253.5" y="316" width="132" height="30" as="geometry" />
        </mxCell>
        <mxCell id="6pG7vvidPj4tpIA_mSHs-16" value="&lt;font style=&quot;font-size: 14px;&quot;&gt;erp_cust_az12&lt;/font&gt;" style="rounded=1;whiteSpace=wrap;html=1;fillColor=#f0a30a;fontColor=#000000;strokeColor=#BD7000;" vertex="1" parent="1">
          <mxGeometry x="254" y="380" width="132" height="30" as="geometry" />
        </mxCell>
        <mxCell id="6pG7vvidPj4tpIA_mSHs-19" value="&lt;font style=&quot;font-size: 14px;&quot;&gt;erp_loc_a101&lt;/font&gt;" style="rounded=1;whiteSpace=wrap;html=1;fillColor=#f0a30a;fontColor=#000000;strokeColor=#BD7000;" vertex="1" parent="1">
          <mxGeometry x="254" y="420" width="132" height="30" as="geometry" />
        </mxCell>
        <mxCell id="6pG7vvidPj4tpIA_mSHs-20" value="&lt;font style=&quot;font-size: 14px;&quot;&gt;erp_px_cat_g1v2&lt;/font&gt;" style="rounded=1;whiteSpace=wrap;html=1;fillColor=#f0a30a;fontColor=#000000;strokeColor=#BD7000;" vertex="1" parent="1">
          <mxGeometry x="254" y="465" width="132" height="30" as="geometry" />
        </mxCell>
        <mxCell id="6pG7vvidPj4tpIA_mSHs-21" value="" style="rounded=1;whiteSpace=wrap;html=1;strokeColor=#B3B3B3;" vertex="1" parent="1">
          <mxGeometry x="446" y="210" width="175" height="310" as="geometry" />
        </mxCell>
        <mxCell id="6pG7vvidPj4tpIA_mSHs-22" value="Silver Layer" style="rounded=1;whiteSpace=wrap;html=1;fillColor=#eeeeee;strokeColor=#36393d;fontSize=18;fontStyle=1" vertex="1" parent="1">
          <mxGeometry x="446" y="130" width="170" height="60" as="geometry" />
        </mxCell>
        <mxCell id="6pG7vvidPj4tpIA_mSHs-23" value="&lt;font style=&quot;font-size: 14px;&quot;&gt;crm_sales_details&lt;/font&gt;" style="rounded=1;whiteSpace=wrap;html=1;fillColor=#E6E6E6;" vertex="1" parent="1">
          <mxGeometry x="471" y="230" width="132" height="30" as="geometry" />
        </mxCell>
        <mxCell id="6pG7vvidPj4tpIA_mSHs-24" value="&lt;font style=&quot;font-size: 14px;&quot;&gt;crm_cust_info&lt;/font&gt;" style="rounded=1;whiteSpace=wrap;html=1;fillColor=#E6E6E6;" vertex="1" parent="1">
          <mxGeometry x="469" y="273" width="132" height="30" as="geometry" />
        </mxCell>
        <mxCell id="6pG7vvidPj4tpIA_mSHs-25" value="&lt;font style=&quot;font-size: 14px;&quot;&gt;crm_prd_info&lt;/font&gt;" style="rounded=1;whiteSpace=wrap;html=1;fillColor=#E6E6E6;" vertex="1" parent="1">
          <mxGeometry x="467.5" y="316" width="132" height="30" as="geometry" />
        </mxCell>
        <mxCell id="6pG7vvidPj4tpIA_mSHs-26" value="&lt;font style=&quot;font-size: 14px;&quot;&gt;erp_cust_az12&lt;/font&gt;" style="rounded=1;whiteSpace=wrap;html=1;fillColor=#E6E6E6;" vertex="1" parent="1">
          <mxGeometry x="471" y="380" width="132" height="30" as="geometry" />
        </mxCell>
        <mxCell id="6pG7vvidPj4tpIA_mSHs-27" value="&lt;font style=&quot;font-size: 14px;&quot;&gt;erp_loc_a101&lt;/font&gt;" style="rounded=1;whiteSpace=wrap;html=1;fillColor=#E6E6E6;" vertex="1" parent="1">
          <mxGeometry x="471" y="420" width="132" height="30" as="geometry" />
        </mxCell>
        <mxCell id="6pG7vvidPj4tpIA_mSHs-28" value="&lt;font style=&quot;font-size: 14px;&quot;&gt;erp_px_cat_g1v2&lt;/font&gt;" style="rounded=1;whiteSpace=wrap;html=1;fillColor=#E6E6E6;" vertex="1" parent="1">
          <mxGeometry x="471" y="465" width="132" height="30" as="geometry" />
        </mxCell>
        <mxCell id="6pG7vvidPj4tpIA_mSHs-29" value="" style="rounded=1;whiteSpace=wrap;html=1;strokeColor=#FFD966;" vertex="1" parent="1">
          <mxGeometry x="660" y="210" width="175" height="310" as="geometry" />
        </mxCell>
        <mxCell id="6pG7vvidPj4tpIA_mSHs-30" value="Gold Layer" style="rounded=1;whiteSpace=wrap;html=1;fillColor=#fff2cc;strokeColor=#d6b656;fontSize=18;fontStyle=1;gradientColor=#ffd966;" vertex="1" parent="1">
          <mxGeometry x="660" y="130" width="170" height="60" as="geometry" />
        </mxCell>
        <mxCell id="6pG7vvidPj4tpIA_mSHs-31" value="&lt;font style=&quot;font-size: 14px;&quot;&gt;fact_sales&lt;/font&gt;" style="rounded=1;whiteSpace=wrap;html=1;fillColor=#FFE599;" vertex="1" parent="1">
          <mxGeometry x="685" y="278" width="132" height="30" as="geometry" />
        </mxCell>
        <mxCell id="6pG7vvidPj4tpIA_mSHs-32" value="&lt;font style=&quot;font-size: 14px;&quot;&gt;dim_customers&lt;/font&gt;" style="rounded=1;whiteSpace=wrap;html=1;fillColor=#FFE599;" vertex="1" parent="1">
          <mxGeometry x="685" y="354" width="132" height="30" as="geometry" />
        </mxCell>
        <mxCell id="6pG7vvidPj4tpIA_mSHs-33" value="&lt;font style=&quot;font-size: 14px;&quot;&gt;dim_products&lt;/font&gt;" style="rounded=1;whiteSpace=wrap;html=1;fillColor=#FFE599;" vertex="1" parent="1">
          <mxGeometry x="684.5" y="425" width="132" height="30" as="geometry" />
        </mxCell>
        <mxCell id="6pG7vvidPj4tpIA_mSHs-38" value="" style="rounded=0;whiteSpace=wrap;html=1;dashed=1;dashPattern=1 2;fillColor=none;" vertex="1" parent="1">
          <mxGeometry x="40" y="160" width="160" height="360" as="geometry" />
        </mxCell>
        <mxCell id="6pG7vvidPj4tpIA_mSHs-39" value="&lt;font style=&quot;font-size: 20px;&quot;&gt;Source&lt;/font&gt;" style="rounded=1;whiteSpace=wrap;html=1;fontSize=16;fontStyle=1" vertex="1" parent="1">
          <mxGeometry x="60" y="140" width="120" height="40" as="geometry" />
        </mxCell>
        <mxCell id="6pG7vvidPj4tpIA_mSHs-40" value="" style="endArrow=classic;html=1;rounded=0;exitX=1;exitY=0.5;exitDx=0;exitDy=0;entryX=0;entryY=0.75;entryDx=0;entryDy=0;" edge="1" parent="1" source="6pG7vvidPj4tpIA_mSHs-28" target="6pG7vvidPj4tpIA_mSHs-33">
          <mxGeometry width="50" height="50" relative="1" as="geometry">
            <mxPoint x="626" y="469" as="sourcePoint" />
            <mxPoint x="676" y="419" as="targetPoint" />
          </mxGeometry>
        </mxCell>
        <mxCell id="6pG7vvidPj4tpIA_mSHs-41" value="" style="endArrow=classic;html=1;rounded=0;entryX=0;entryY=0.5;entryDx=0;entryDy=0;exitX=1;exitY=0.5;exitDx=0;exitDy=0;" edge="1" parent="1" source="6pG7vvidPj4tpIA_mSHs-25" target="6pG7vvidPj4tpIA_mSHs-33">
          <mxGeometry width="50" height="50" relative="1" as="geometry">
            <mxPoint x="604" y="330" as="sourcePoint" />
            <mxPoint x="685.5" y="308.5" as="targetPoint" />
          </mxGeometry>
        </mxCell>
        <mxCell id="6pG7vvidPj4tpIA_mSHs-42" value="" style="endArrow=classic;html=1;rounded=0;entryX=0;entryY=0.5;entryDx=0;entryDy=0;" edge="1" parent="1">
          <mxGeometry width="50" height="50" relative="1" as="geometry">
            <mxPoint x="603" y="242" as="sourcePoint" />
            <mxPoint x="685" y="297" as="targetPoint" />
          </mxGeometry>
        </mxCell>
        <mxCell id="6pG7vvidPj4tpIA_mSHs-43" value="" style="endArrow=classic;html=1;rounded=0;entryX=0;entryY=0.5;entryDx=0;entryDy=0;exitX=1;exitY=0.5;exitDx=0;exitDy=0;" edge="1" parent="1" source="6pG7vvidPj4tpIA_mSHs-24">
          <mxGeometry width="50" height="50" relative="1" as="geometry">
            <mxPoint x="599.5" y="256.5" as="sourcePoint" />
            <mxPoint x="684.5" y="365.5" as="targetPoint" />
          </mxGeometry>
        </mxCell>
        <mxCell id="6pG7vvidPj4tpIA_mSHs-44" value="" style="endArrow=classic;html=1;rounded=0;exitX=1;exitY=0.5;exitDx=0;exitDy=0;entryX=0;entryY=0.75;entryDx=0;entryDy=0;" edge="1" parent="1" target="6pG7vvidPj4tpIA_mSHs-32">
          <mxGeometry width="50" height="50" relative="1" as="geometry">
            <mxPoint x="603.5" y="440.25" as="sourcePoint" />
            <mxPoint x="685.5" y="408.25" as="targetPoint" />
          </mxGeometry>
        </mxCell>
        <mxCell id="6pG7vvidPj4tpIA_mSHs-46" value="" style="endArrow=classic;html=1;rounded=0;exitX=1;exitY=0.5;exitDx=0;exitDy=0;entryX=0;entryY=0.5;entryDx=0;entryDy=0;" edge="1" parent="1" target="6pG7vvidPj4tpIA_mSHs-32">
          <mxGeometry width="50" height="50" relative="1" as="geometry">
            <mxPoint x="603.5" y="396.88" as="sourcePoint" />
            <mxPoint x="685" y="333.63" as="targetPoint" />
          </mxGeometry>
        </mxCell>
        <mxCell id="6pG7vvidPj4tpIA_mSHs-47" value="" style="strokeWidth=2;html=1;shape=mxgraph.flowchart.annotation_2;align=left;labelPosition=right;pointerEvents=1;" vertex="1" parent="1">
          <mxGeometry x="162" y="247" width="91" height="85" as="geometry" />
        </mxCell>
        <mxCell id="6pG7vvidPj4tpIA_mSHs-49" value="" style="line;strokeWidth=2;html=1;perimeter=backbonePerimeter;points=[];outlineConnect=0;" vertex="1" parent="1">
          <mxGeometry x="203" y="284.5" width="50" height="10" as="geometry" />
        </mxCell>
        <mxCell id="6pG7vvidPj4tpIA_mSHs-50" value="" style="line;strokeWidth=2;html=1;perimeter=backbonePerimeter;points=[];outlineConnect=0;" vertex="1" parent="1">
          <mxGeometry x="201" y="432" width="50" height="10" as="geometry" />
        </mxCell>
        <mxCell id="6pG7vvidPj4tpIA_mSHs-51" value="" style="strokeWidth=2;html=1;shape=mxgraph.flowchart.annotation_2;align=left;labelPosition=right;pointerEvents=1;" vertex="1" parent="1">
          <mxGeometry x="162" y="394.5" width="91" height="85" as="geometry" />
        </mxCell>
        <mxCell id="6pG7vvidPj4tpIA_mSHs-52" value="Data Flow Diagram" style="text;strokeColor=none;fillColor=none;html=1;fontSize=24;fontStyle=1;verticalAlign=middle;align=center;" vertex="1" parent="1">
          <mxGeometry x="295" y="50" width="260" height="40" as="geometry" />
        </mxCell>
        <mxCell id="6pG7vvidPj4tpIA_mSHs-53" value="" style="endArrow=classic;html=1;rounded=0;entryX=0;entryY=0.578;entryDx=0;entryDy=0;entryPerimeter=0;" edge="1" parent="1" target="6pG7vvidPj4tpIA_mSHs-23">
          <mxGeometry width="50" height="50" relative="1" as="geometry">
            <mxPoint x="385.5" y="247.34889434889442" as="sourcePoint" />
            <mxPoint x="501.5" y="273" as="targetPoint" />
          </mxGeometry>
        </mxCell>
        <mxCell id="6pG7vvidPj4tpIA_mSHs-54" value="" style="endArrow=classic;html=1;rounded=0;entryX=0;entryY=0.578;entryDx=0;entryDy=0;entryPerimeter=0;" edge="1" parent="1">
          <mxGeometry width="50" height="50" relative="1" as="geometry">
            <mxPoint x="382" y="287.4188943488944" as="sourcePoint" />
            <mxPoint x="467.5" y="287.07" as="targetPoint" />
          </mxGeometry>
        </mxCell>
        <mxCell id="6pG7vvidPj4tpIA_mSHs-55" value="" style="endArrow=classic;html=1;rounded=0;entryX=0;entryY=0.578;entryDx=0;entryDy=0;entryPerimeter=0;" edge="1" parent="1">
          <mxGeometry width="50" height="50" relative="1" as="geometry">
            <mxPoint x="382" y="332.3488943488944" as="sourcePoint" />
            <mxPoint x="467.5" y="332" as="targetPoint" />
          </mxGeometry>
        </mxCell>
        <mxCell id="6pG7vvidPj4tpIA_mSHs-56" value="" style="endArrow=classic;html=1;rounded=0;entryX=0;entryY=0.578;entryDx=0;entryDy=0;entryPerimeter=0;" edge="1" parent="1">
          <mxGeometry width="50" height="50" relative="1" as="geometry">
            <mxPoint x="382" y="396.3488943488944" as="sourcePoint" />
            <mxPoint x="467.5" y="396" as="targetPoint" />
          </mxGeometry>
        </mxCell>
        <mxCell id="6pG7vvidPj4tpIA_mSHs-57" value="" style="endArrow=classic;html=1;rounded=0;entryX=0;entryY=0.578;entryDx=0;entryDy=0;entryPerimeter=0;" edge="1" parent="1">
          <mxGeometry width="50" height="50" relative="1" as="geometry">
            <mxPoint x="386" y="432.3488943488944" as="sourcePoint" />
            <mxPoint x="471.5" y="432" as="targetPoint" />
          </mxGeometry>
        </mxCell>
        <mxCell id="6pG7vvidPj4tpIA_mSHs-58" value="" style="endArrow=classic;html=1;rounded=0;entryX=0;entryY=0.578;entryDx=0;entryDy=0;entryPerimeter=0;" edge="1" parent="1">
          <mxGeometry width="50" height="50" relative="1" as="geometry">
            <mxPoint x="383.5" y="481.3488943488944" as="sourcePoint" />
            <mxPoint x="469" y="481" as="targetPoint" />
          </mxGeometry>
        </mxCell>
      </root>
    </mxGraphModel>
  </diagram>
</mxfile>
